<?xml version="1.0" encoding="utf-8"?>
<!-- Generator: Adobe Illustrator 16.0.0, SVG Export Plug-In . SVG Version: 6.00 Build 0)  -->
<!DOCTYPE svg PUBLIC "-//W3C//DTD SVG 1.1//EN" "http://www.w3.org/Graphics/SVG/1.1/DTD/svg11.dtd">
<svg version="1.1" id="Layer_1" xmlns="http://www.w3.org/2000/svg" xmlns:xlink="http://www.w3.org/1999/xlink" x="0px" y="0px"
	 width="148.334px" height="148px" viewBox="0 0 148.334 148" enable-background="new 0 0 148.334 148" xml:space="preserve">
<g>
	<path fill="#424242" d="M74.229,148.199c-40.528,0-73.5-32.972-73.5-73.499c0-40.528,32.972-73.5,73.5-73.5
		c40.528,0,73.5,32.972,73.5,73.5C147.729,115.228,114.758,148.199,74.229,148.199z M74.229,4.2c-38.874,0-70.5,31.626-70.5,70.5
		c0,38.873,31.626,70.499,70.5,70.499s70.5-31.626,70.5-70.499C144.729,35.826,113.103,4.2,74.229,4.2z"/>
</g>
<path fill="#424242" d="M100.076,79.025l2.263-17.521H84.985V50.315c0-5.072,1.416-8.529,8.688-8.529l9.271-0.005V26.11
	c-1.601-0.214-7.104-0.69-13.518-0.69c-13.38,0-22.532,8.168-22.532,23.163v12.921H51.763v17.521h15.131v44.957h18.09V79.025
	H100.076z"/>
</svg>
