<?xml version="1.0" encoding="utf-8"?>
<!-- Generator: Adobe Illustrator 16.0.0, SVG Export Plug-In . SVG Version: 6.00 Build 0)  -->
<!DOCTYPE svg PUBLIC "-//W3C//DTD SVG 1.1//EN" "http://www.w3.org/Graphics/SVG/1.1/DTD/svg11.dtd">
<svg version="1.1" id="Layer_1" xmlns="http://www.w3.org/2000/svg" xmlns:xlink="http://www.w3.org/1999/xlink" x="0px" y="0px"
	 width="148.334px" height="148px" viewBox="0 0 148.334 148" enable-background="new 0 0 148.334 148" xml:space="preserve">
<g>
	<path fill="#424242" d="M74.333,147.5c-40.528,0-73.5-32.972-73.5-73.5c0-40.528,32.972-73.5,73.5-73.5
		c40.528,0,73.501,32.972,73.501,73.5C147.834,114.529,114.861,147.5,74.333,147.5z M74.333,3.5c-38.874,0-70.5,31.626-70.5,70.5
		s31.626,70.5,70.5,70.5s70.501-31.626,70.501-70.5S113.207,3.5,74.333,3.5z"/>
</g>
<g>
	<path fill="#424242" d="M72.594,36.517c0.686,0.427,1.452,1.042,2.306,1.856c0.818,0.849,1.62,1.896,2.403,3.131
		c0.753,1.167,1.421,2.542,2.003,4.138c0.479,1.589,0.717,3.447,0.717,5.57c-0.062,3.89-0.924,7-2.58,9.337
		c-0.807,1.131-1.664,2.175-2.573,3.128c-1.004,0.953-2.071,1.928-3.204,2.92c-0.65,0.67-1.247,1.43-1.799,2.28
		c-0.646,0.884-0.97,1.906-0.97,3.075c0,1.139,0.332,2.069,0.996,2.813c0.563,0.709,1.112,1.33,1.645,1.86l3.691,3.021
		c2.291,1.879,4.302,3.939,6.028,6.206c1.629,2.3,2.474,5.305,2.549,9.018c0,5.27-2.33,9.936-6.985,14.009
		c-4.82,4.211-11.787,6.382-20.887,6.523c-7.619-0.068-13.305-1.695-17.063-4.868c-3.787-2.969-5.685-6.515-5.685-10.646
		c0-2.01,0.613-4.255,1.852-6.728c1.193-2.468,3.36-4.64,6.499-6.511c3.52-2.007,7.221-3.354,11.1-4.024
		c3.841-0.563,7.026-0.882,9.563-0.951c-0.782-1.032-1.484-2.134-2.098-3.306c-0.715-1.139-1.071-2.512-1.071-4.104
		c0-0.962,0.133-1.766,0.405-2.401c0.239-0.681,0.465-1.297,0.666-1.868c-1.233,0.141-2.402,0.214-3.492,0.214
		c-5.792-0.073-10.205-1.896-13.241-5.466c-3.181-3.327-4.77-7.199-4.77-11.618c0-5.343,2.25-10.185,6.756-14.537
		c3.089-2.541,6.303-4.201,9.634-4.986c3.3-0.67,6.393-1.007,9.276-1.007h21.749l-6.714,3.924L72.594,36.517L72.594,36.517z
		 M76.796,99.121c0-2.763-0.901-5.165-2.7-7.216c-1.904-1.941-4.882-4.33-8.934-7.164c-0.695-0.071-1.509-0.104-2.441-0.104
		c-0.554-0.067-1.976,0-4.259,0.209c-2.25,0.319-4.555,0.831-6.911,1.538c-0.553,0.215-1.329,0.534-2.334,0.959
		c-1.004,0.46-2.023,1.113-3.064,1.962c-1.005,0.882-1.853,1.981-2.543,3.29c-0.798,1.382-1.191,3.044-1.191,4.987
		c0,3.822,1.726,6.969,5.188,9.445c3.292,2.478,7.792,3.749,13.507,3.82c5.126-0.071,9.037-1.205,11.735-3.397
		C75.476,105.293,76.796,102.519,76.796,99.121z M61.634,67.243c2.863-0.108,5.249-1.14,7.154-3.089
		c0.924-1.38,1.516-2.797,1.777-4.253c0.158-1.452,0.239-2.673,0.239-3.666c0-4.288-1.1-8.613-3.29-12.97
		c-1.031-2.089-2.387-3.792-4.064-5.101c-1.715-1.236-3.685-1.896-5.912-1.966c-2.948,0.07-5.395,1.258-7.35,3.562
		c-1.649,2.412-2.438,5.104-2.362,8.082c0,3.931,1.147,8.021,3.449,12.277c1.117,1.982,2.551,3.666,4.316,5.046
		C57.351,66.553,59.365,67.243,61.634,67.243z"/>
	<polygon fill="#424242" points="115.48,44.477 104.071,44.477 104.071,33.062 98.541,33.062 98.541,44.477 87.132,44.477 
		87.132,50.005 98.541,50.005 98.541,61.414 104.071,61.414 104.071,50.005 115.48,50.005 	"/>
</g>
</svg>
