<?xml version="1.0" encoding="utf-8"?>
<!-- Generator: Adobe Illustrator 16.0.0, SVG Export Plug-In . SVG Version: 6.00 Build 0)  -->
<!DOCTYPE svg PUBLIC "-//W3C//DTD SVG 1.1//EN" "http://www.w3.org/Graphics/SVG/1.1/DTD/svg11.dtd">
<svg version="1.1" id="Layer_1" xmlns="http://www.w3.org/2000/svg" xmlns:xlink="http://www.w3.org/1999/xlink" x="0px" y="0px"
	 width="148.334px" height="148px" viewBox="0 0 148.334 148" enable-background="new 0 0 148.334 148" xml:space="preserve">
<circle fill="none" stroke="#000000" stroke-width="3" stroke-miterlimit="10" cx="74.528" cy="74.221" r="72"/>
<g>
	<path d="M53.68,41.622c0,4.13-3.147,7.474-8.064,7.474c-4.72,0-7.867-3.344-7.769-7.474c-0.098-4.327,3.049-7.572,7.868-7.572
		S53.581,37.295,53.68,41.622z M38.24,103.086v-48.09h14.948v48.09H38.24z"/>
	<path d="M65.185,70.338c0-5.999-0.197-11.113-0.394-15.342h12.981l0.688,6.589h0.295c1.967-3.049,6.885-7.671,14.851-7.671
		c9.834,0,17.21,6.491,17.21,20.652v28.52H95.868V76.435c0-6.195-2.164-10.424-7.572-10.424c-4.131,0-6.589,2.852-7.573,5.605
		c-0.393,0.885-0.59,2.36-0.59,3.737v27.732H65.185V70.338z"/>
</g>
</svg>
