<?xml version="1.0" encoding="utf-8"?>
<!-- Generator: Adobe Illustrator 16.0.0, SVG Export Plug-In . SVG Version: 6.00 Build 0)  -->
<!DOCTYPE svg PUBLIC "-//W3C//DTD SVG 1.1//EN" "http://www.w3.org/Graphics/SVG/1.1/DTD/svg11.dtd">
<svg version="1.1" id="Layer_1" xmlns="http://www.w3.org/2000/svg" xmlns:xlink="http://www.w3.org/1999/xlink" x="0px" y="0px"
	 width="148.333px" height="148px" viewBox="0 0 148.333 148" enable-background="new 0 0 148.333 148" xml:space="preserve">
<path fill="#424242" d="M122.145,44.412c-3.523,1.563-7.313,2.62-11.285,3.094c4.057-2.432,7.176-6.28,8.641-10.87
	c-3.792,2.252-7.996,3.889-12.475,4.771c-3.587-3.821-8.695-6.206-14.345-6.206c-10.853,0-19.65,8.799-19.65,19.648
	c0,1.543,0.173,3.039,0.508,4.477c-16.331-0.816-30.807-8.639-40.5-20.531c-1.688,2.906-2.657,6.28-2.657,9.881
	c0,6.815,3.468,12.834,8.736,16.354c-3.218-0.098-6.248-0.988-8.897-2.459v0.248c0,9.52,6.773,17.463,15.76,19.268
	c-1.647,0.447-3.389,0.693-5.176,0.693c-1.265,0-2.499-0.127-3.699-0.357c2.501,7.807,9.756,13.486,18.354,13.648
	c-6.721,5.268-15.19,8.412-24.402,8.412c-1.584,0-3.146-0.096-4.684-0.275c8.693,5.568,19.022,8.824,30.124,8.824
	c36.14,0,55.901-29.936,55.901-55.904c0-0.849-0.021-1.696-0.053-2.545C116.177,51.814,119.504,48.354,122.145,44.412z"/>
<circle fill="none" stroke="#424242" stroke-width="3" stroke-miterlimit="10" cx="74.259" cy="74.115" r="72"/>
</svg>
