<?xml version="1.0" encoding="utf-8"?>
<!-- Generator: Adobe Illustrator 16.0.0, SVG Export Plug-In . SVG Version: 6.00 Build 0)  -->
<!DOCTYPE svg PUBLIC "-//W3C//DTD SVG 1.1//EN" "http://www.w3.org/Graphics/SVG/1.1/DTD/svg11.dtd">
<svg version="1.1" id="Layer_1" xmlns="http://www.w3.org/2000/svg" xmlns:xlink="http://www.w3.org/1999/xlink" x="0px" y="0px"
	 width="148.334px" height="148px" viewBox="0 0 148.334 148" enable-background="new 0 0 148.334 148" xml:space="preserve">
<path fill="#424242" d="M122.145,44.412c-3.523,1.563-7.313,2.619-11.285,3.094c4.058-2.432,7.176-6.28,8.642-10.87
	c-3.793,2.252-7.996,3.889-12.476,4.771c-3.587-3.821-8.695-6.206-14.345-6.206c-10.854,0-19.65,8.799-19.65,19.647
	c0,1.543,0.173,3.039,0.508,4.478c-16.331-0.816-30.807-8.64-40.5-20.531c-1.688,2.906-2.657,6.28-2.657,9.881
	c0,6.815,3.469,12.834,8.736,16.354c-3.218-0.098-6.248-0.987-8.896-2.459v0.248c0,9.521,6.772,17.463,15.76,19.269
	c-1.647,0.447-3.39,0.692-5.176,0.692c-1.266,0-2.499-0.127-3.699-0.356c2.501,7.807,9.756,13.486,18.354,13.647
	c-6.721,5.269-15.189,8.412-24.401,8.412c-1.584,0-3.146-0.096-4.685-0.274c8.693,5.567,19.022,8.823,30.124,8.823
	c36.141,0,55.901-29.936,55.901-55.903c0-0.85-0.021-1.696-0.053-2.545C116.177,51.814,119.505,48.354,122.145,44.412z"/>
<g>
	<path fill="#424242" d="M74.259,147.615c-40.528,0-73.5-32.972-73.5-73.5c0-40.528,32.972-73.5,73.5-73.5
		c40.528,0,73.501,32.972,73.501,73.5C147.76,114.643,114.787,147.615,74.259,147.615z M74.259,3.615
		c-38.874,0-70.5,31.626-70.5,70.5s31.626,70.5,70.5,70.5s70.501-31.626,70.501-70.5S113.133,3.615,74.259,3.615z"/>
</g>
</svg>
