<?xml version="1.0" encoding="utf-8"?>
<!-- Generator: Adobe Illustrator 16.0.0, SVG Export Plug-In . SVG Version: 6.00 Build 0)  -->
<!DOCTYPE svg PUBLIC "-//W3C//DTD SVG 1.1//EN" "http://www.w3.org/Graphics/SVG/1.1/DTD/svg11.dtd">
<svg version="1.1" id="Layer_1" xmlns="http://www.w3.org/2000/svg" xmlns:xlink="http://www.w3.org/1999/xlink" x="0px" y="0px"
	 width="260.5px" height="220.5px" viewBox="0 0 260.5 220.5" enable-background="new 0 0 260.5 220.5" xml:space="preserve">
<g>
	<path fill-rule="evenodd" clip-rule="evenodd" fill="#424242" d="M81.979,71.437c5.556-1.359,11.226-0.746,16.819-0.705
		c24.214,0.176,48.397-1.047,72.599-1.345c8.899-0.11,17.805,0.113,26.686-0.686c1.831-1.974,4.152-1.039,6.248-1.073
		c-1.453-0.31-2.863-0.031-4.277-0.166c-5.604-0.94-11.232-0.419-16.84-0.45c-14.382-0.081-28.765-0.026-43.145-0.026
		c-1.204-0.01-2.41,0.028-3.612-0.046c-1.132-0.524-2.005-1.191-1.431-2.641c2.941-0.87,6.063,0.41,8.983-0.734
		c13.082-0.18,26.16-0.946,39.249-0.252c0.593,0.031,1.211-0.437,1.818-0.671c0.269-0.403,0.63-0.688,1.08-0.862
		c3.068,0.008,6.123-0.373,8.111-0.301c-1.193,0.045-3.476,0.006-5.764,0.195c-12.813-1.477-25.657-0.318-38.473-0.693
		c-3.209-0.613-6.421-0.772-9.637-0.019c-3.943,0.049-7.885,0.012-11.828,0.022c-16.042-0.059-32.079,0.119-48.117-0.089
		c-0.674-0.349-0.864-0.872-0.571-1.571l-0.024,0.032c6.014-1.033,12.129,0.392,18.14-0.745c7.249-0.076,14.499-0.152,21.748-0.228
		c2.819-0.574,5.637-0.628,8.453,0.025c1.501-0.014,3.002-0.027,4.504-0.041c6.288-0.804,12.605-0.106,18.904-0.369
		c1.8-0.074,3.659,0.438,5.393-0.452c14.09-1.173,28.221-0.825,42.333-1.099c6.581-0.127,7.177-0.781,4.5-6.713
		c-6.782-15.023-19.658-22.678-34.577-26.979c-18.33-5.285-36.445-3.881-53.961,4.112c-7.104,3.242-12.591,8.522-18.326,13.538
		c-0.454-0.167-0.789-0.465-0.983-0.912c4.344-9.289,11.611-15.906,19.88-21.551C130.69,7.822,147.179,2.63,165.045,1.629
		c5.973,0.626,11.945,0.624,17.917,0.001c28.323,2.648,52.794,12.62,69.112,37.302c4.404,6.661,7.411,14.131,5.969,22.553
		c-0.885,1.67-0.865,3.345-0.021,5.022c1.164,6.804,1.164,6.838-5.833,6.861c-47.449,0.154-94.898,0.313-142.348,0.425
		c-9.961,0.023-19.922-0.138-29.884-0.214C79.292,71.601,81.573,72.403,81.979,71.437z"/>
	<path fill-rule="evenodd" clip-rule="evenodd" fill="#424242" d="M253.191,97.57c-7.604,14.327-19.652,23.778-34.275,29.805
		c-35.145,14.485-69.583,13.194-102.391-6.775c-14.503-8.828-24.188-21.6-26.76-39c-0.532-3.597,0.438-4.668,4.114-4.622
		c14.811,0.188,29.625,0.131,44.438,0.033c2.376-0.016,3.964,0.475,4.155,3.04c0.979,13.152,9.184,21.427,19.502,27.839
		c24.166,15.017,59.454,13.133,82.169-3.921c2.966-2.228,5.188-5.11,7.765-7.682C252.584,96.467,252.999,96.907,253.191,97.57z"/>
	<path fill-rule="evenodd" clip-rule="evenodd" fill="#444444" d="M147.027,170.554c-0.777,1.271-1.43,2.644-2.361,3.788
		c-1.377,1.691-3.361,1.254-5.111,0.867c-1.758-0.388-2.146-1.989-2.135-3.547c0.035-4.511-0.307-8.981-1.259-13.394
		c-0.277-1.284,0.644-3.898-1.479-3.404c-2.164,0.503-5.52-0.798-6.496,2.437c-1.247,4.127-2.23,8.348-3.076,12.578
		c-0.732,3.661,2.977,3.041,6.355,4.224c-5.021,2.223-8.417,2.335-11.675,0.229c-3.177-2.054-2.558-5.069-1.617-8.059
		c0.55-1.747,1.087-3.498,1.627-5.247c0.841-2.726,2.731-5.717-3.274-7.018c6.85-1.328,6.704-10.416,14.38-8.398
		c-0.168-0.233,0.208,0.056,0.169,0.27c-1.329,7.29-1.338,7.167,6.628,7.001c2.231-0.046,5.93-1.415,5.42,3.373
		c0.656,1.604,0.288,3.284,0.352,4.93c0.119,3.059-1.191,6.74,3.646,7.608C147.614,168.88,147.392,169.961,147.027,170.554z"/>
	<path fill-rule="evenodd" clip-rule="evenodd" fill="#444444" d="M87.051,153.481c6.377,2.576,8.372,7.497,5.427,13.385
		c-3.883,7.763-15.451,11.647-23.274,7.816c-5.651-2.768-7.451-8.642-4.089-14.118c2.192-3.571,4.913-6.695,9.523-7.179
		c1.251-0.376,2.505-0.778,3.597,0.368c0.665,2.159-1.093,3.327-2.042,4.788c-1.551,2.39-2.832,4.885-3.463,7.668
		c-0.455,2.003-0.701,4.116,1.445,5.31c2.139,1.189,4.386,0.621,5.973-0.99c3.428-3.481,5.087-7.701,4.139-12.678
		c-0.244-1.281-1.079-2.457-0.66-3.858C84.598,152.669,85.786,152.81,87.051,153.481z"/>
	<path fill-rule="evenodd" clip-rule="evenodd" fill="#444444" d="M48.122,145.713c-3.616,3.232-2.714,5.965,0.918,8.411
		c2.208,1.487,4.366,3.051,6.609,4.48c6.987,4.451,5.726,11.567-0.566,15.138c-6.4,3.631-13.383,3.021-19.626-0.283
		c-3.758-1.989,0.184-4.111,0.989-6.42c3.849,5.46,7.896,7.121,12.793,5.516c4.045-1.327,5.052-4.677,1.927-7.532
		c-2.431-2.221-5.412-3.832-8.109-5.769c-6.662-4.784-5.93-11.217,1.673-14.886C46.117,144.171,47.891,142.995,48.122,145.713z"/>
	<path fill-rule="evenodd" clip-rule="evenodd" fill="#454545" d="M252.095,174.612c-4.981,2.302-10.071,1.79-14.894-0.122
		c-3.451-1.368-6.092-3.847-6.295-8.164c-0.245-5.223,2.096-9.135,6.223-11.682c4.377-2.701,9.39-3.255,14.434-1.771
		c3.101,0.911,5.105,3.062,5.97,6.153c1.099,3.926-0.45,5.791-4.567,5.739c-2.824-0.035-5.666-0.187-8.47,0.061
		c-1.895,0.166-4.586-1.625-5.542,1.509c-0.867,2.843,0.813,4.701,3.05,6.15c2.524,1.139,5.188,0.231,7.77,0.536
		C250.814,173.145,252.275,172.69,252.095,174.612z"/>
	<path fill-rule="evenodd" clip-rule="evenodd" fill="#464646" d="M100.756,175.359c-3.612,0.675-3.923-1.087-3.048-3.98
		c1.148-3.799,2.282-7.617,3.089-11.496c0.351-1.686,2.149-4.574-2.026-4.516c-0.68,0.01-1.172-0.582-1.035-1.376
		c0.131-0.762,0.769-1.28,1.398-1.133c3.569,0.836,4-1.967,4.989-4.155c2.239-4.954,6.221-7.553,11.467-8.334
		c1.261-0.188,2.844-0.547,3.559,0.949c0.611,1.279-0.135,2.63-0.72,3.765c-0.91,1.768-2.048,0.648-3.297,0.164
		c-2.447-0.949-5.255-1.416-5.921,2.058c-0.546,2.844-1.088,6.472,4.038,5.63c0.884-0.146,1.739,0.061,1.679,1.199
		c-0.058,1.1-1.013,1.312-1.817,1.175c-4.356-0.743-4.828,2.195-5.36,5.34c-0.636,3.761-1.675,7.458-2.225,11.229
		C105.087,174.874,103.58,175.885,100.756,175.359z"/>
	<path fill-rule="evenodd" clip-rule="evenodd" fill="#464646" d="M221.022,155.571c1.188-1.467,2.719-2.498,4.539-2.833
		c1.264-0.232,3.362-1.314,3.474,1.096c0.076,1.665,0.75,4.098-2.249,4.699c-8.603,1.726-9.413,2.723-10.567,11.607
		c-0.259,1.987,0.443,4.744-2.6,5.148c-1.867,0.249-4.15,0.995-5.668-0.569c-1.422-1.466,0.257-3.07,0.652-4.592
		c1.443-5.55,2.922-11.09,4.387-16.634C216.238,151.979,218.699,153.511,221.022,155.571z"/>
	<path fill-rule="evenodd" clip-rule="evenodd" fill="#484848" d="M14.007,177.515c-0.056,0.156-0.115,0.312-0.167,0.469
		c-3.488,10.511-3.488,10.512,7.391,10.719c1.04,0.021,2.614-0.758,2.525,1.186c-0.059,1.286-1.356,1.16-2.351,1.133
		c-2.322-0.064-4.653-0.026-6.964-0.217c-2.756-0.226-3.993,0.464-4.46,3.648c-1.454,9.911-1.663,9.849,8.606,9.973
		c1.31,0.016,3.612-1.048,3.74,0.994c0.161,2.563-2.385,1.608-3.819,1.636c-3.481,0.067-7-0.444-10.443-0.104
		c-4.366,0.431-5.518-0.909-4.246-5.116c2.396-7.929,3.854-16.078,5.06-24.268c0.123-0.834,0.257-1.64,1.103-2.08
		c1.357-0.882,2.866-0.316,4.301-0.448c0.513,0.095,0.869,0.376,1.046,0.873C15.343,176.821,14.527,177.046,14.007,177.515z"/>
	<path fill-rule="evenodd" clip-rule="evenodd" fill="#454545" d="M193.918,161.307c1.248-1.396,2.6-2.84,0.947-4.736
		c-1.602-1.836-3.699-1.811-5.963-1.489c-1.453,0.207-3.696,2.468-4.184,0.368c-0.525-2.268,2.561-2.566,4.394-2.853
		c2.274-0.354,4.649-0.445,6.94-0.229c6.184,0.584,8.078,3.366,6.526,9.284c-0.632,2.411-1.397,4.787-2.053,7.192
		c-0.216,0.794-0.154,1.676-0.438,2.436c-0.721,1.937,4.211,2.435,1.503,4.022c-2.231,1.31-5.552,1-7.61-1.722
		c-0.684-0.873-2.373-0.486-2.533-2.02c-0.057-1.94,1.037-3.473,1.815-5.119C194.851,164.905,193.18,162.949,193.918,161.307z"/>
	<path fill-rule="evenodd" clip-rule="evenodd" fill="#464646" d="M167.209,167.914c-0.66,1.129-1.355,2.238-1.975,3.391
		c-1.506,2.802-3.463,5.021-6.992,4.047c-3.424-0.945-1.652-4.157-2.393-6.29c-0.854-2.455,1.141-5.898-2.543-7.371
		c-1.861,0.104-2.017-0.808-1.322-2.223c1.01-1.701,1.974-3.432,3.04-5.096c1.343-2.096,3.495-1.707,5.387-1.341
		c1.958,0.379,1.562,2.209,1.637,3.666c0.163,3.138,0.378,6.273,0.534,9.411c0.082,1.63,0.826,2.019,2.246,1.33
		c0.551-0.489,1.05-1.159,1.916-0.895C167.455,166.761,167.554,167.286,167.209,167.914z"/>
	<path fill-rule="evenodd" clip-rule="evenodd" fill="#484848" d="M110.676,206.617c-4.464-1.257-7.074-4.413-7.361-8.805
		c-0.34-5.203,2.108-9.33,6.745-11.98c0.772,0.195,1.266,0.678,1.49,1.438c0.582,1.526-1.757,4.013,0.898,4.628
		c2.935,0.681,6.163,1.03,9.045-0.488c0.975-0.514,0.601-1.709,0.22-2.657c-0.465-1.156-1.561-2.192-0.75-3.616
		c2.853,0.059,5.149,1.186,6.473,3.761c2.007,3.903,0.443,6.58-3.908,6.686c-3.628,0.088-7.264-0.104-10.89,0.015
		c-1.528,0.05-3.624-0.693-4.375,1.32c-0.808,2.164,0.027,4.149,1.512,5.926c1.393,1.666,3.543,1.669,5.219,2.677
		C114.146,208.212,112.234,206.719,110.676,206.617z"/>
	<path fill-rule="evenodd" clip-rule="evenodd" fill="#494949" d="M59.998,205.501c-2.026-1.043-3.62-1.627-3.913,1.751
		c-0.285,3.286-1.201,6.512-1.669,9.789c-0.265,1.852-1.1,2.598-2.941,2.435c-2.519-0.223-1.793-1.922-1.463-3.281
		c2.342-9.641,4.814-19.246,6.198-29.1c0.372-2.648,1.73-2.863,3.943-0.996c0.291,1.288,2.354,0.802,2.372,2.365
		c0.059,1.589-0.948,2.786-1.548,4.129c-1.792,4.009-2.036,7.958,0.339,11.843C61.225,205.222,61.042,205.897,59.998,205.501z"/>
	<path fill-rule="evenodd" clip-rule="evenodd" fill="#484848" d="M191.932,171.3c0.684,0.76,1.366,1.52,2.049,2.28
		c-1.463-0.463-2.504,0.384-3.617,1.111c-1.584,1.036-3.393,1.244-5.24,1.233c-3.974-0.024-6.961-1.964-7.67-5.728
		c-0.744-3.951,2.467-5.854,5.666-7.074c1.493-0.57,3.236-0.482,4.866-0.692c0.553,0.397,1.237,0.681,1.302,1.502
		c-0.045,0.152-0.057,0.331-0.146,0.454C185.365,169.653,185.549,170.112,191.932,171.3z"/>
	<path fill-rule="evenodd" clip-rule="evenodd" fill="#F3F3F3" d="M120.963,185.136c-0.304,1.508,1.114,1.896,1.834,2.683
		c1.165,1.271,1.28,2.709,0.799,4.154c-0.544,1.633-2.111,1.305-3.396,1.331c-1.987,0.041-3.99,0.161-5.958-0.034
		c-1.719-0.17-4.042,1.012-5.037-0.753c-0.996-1.766,1.19-3.165,1.896-4.762c0.388-0.882,1.021-1.529,1.873-1.974
		c0.902-0.285,1.703-0.828,2.63-1.058c1.818,0.671,3.695-1.01,5.502,0.129L120.963,185.136z"/>
	<path fill-rule="evenodd" clip-rule="evenodd" fill="#4D4D4D" d="M40.451,193.595c-0.34,4.322,3.475,6.441,5.129,9.705
		c0.541,1.067,2.352,2.172,1.003,3.325c-1.439,1.23-3.09,0.477-4.229-1.09c-2.152-2.961-5.619-6.157-6.384-8.646
		c-1.227-3.995-4.185-6.419-5.606-9.91c-0.315-0.774-0.838-1.566,0.015-2.194c0.903-0.664,1.904-0.362,2.755,0.237
		c2.14,1.51,2.838,3.988,4.043,6.125C37.271,193.296,39.473,192.628,40.451,193.595z"/>
	<path fill-rule="evenodd" clip-rule="evenodd" fill="#4C4C4C" d="M75.001,185.271c6.481,3.803,7.327,10.468,2.048,16.701
		c-1.827,2.157-3.954,3.972-6.828,4.635c-1.058,0.516-1.976,0.503-2.582-0.682c-0.131-0.902,0.193-1.674,0.938-2.125
		c6.446-3.915,5.792-9.673,4.119-15.706c-0.275-1.086,0.048-1.979,0.875-2.708C74.026,185.089,74.503,185.052,75.001,185.271z"/>
	<path fill-rule="evenodd" clip-rule="evenodd" fill="#4B4B4B" d="M96.06,188.612c-5.383,2.781-5.615,8.15-6.596,13.141
		c-0.255,1.3-0.396,2.632-0.769,3.896c-0.327,1.112-1.379,1.419-2.401,1.332c-1.269-0.108-1.625-1.071-1.396-2.162
		c1.291-6.159,2.616-12.311,3.96-18.458c0.231-1.057,0.927-1.763,2.056-1.849c1.225-0.093,1.869,0.539,1.825,1.759
		c-0.068,1.918,0.923,1.78,2.188,1.185C95.959,187.199,96.292,187.629,96.06,188.612z"/>
	<path fill-rule="evenodd" clip-rule="evenodd" fill="#4E4E4E" d="M140.965,205.431c4.268-4.175,4.096-5.492-1.095-8.287
		c-0.874-0.471-1.78-0.885-2.638-1.385c-1.878-1.097-4.23-2.318-3.928-4.659c0.32-2.483,1.315-5.188,4.543-5.72
		c1.113-0.354,1.373,0.16,1.167,1.148c-3.245,2.105-2.516,4.213,0.073,6.207c0.901,0.694,1.979,1.169,2.996,1.706
		c2.451,1.292,5.771,2.228,5.694,5.475c-0.08,3.365-2.667,5.466-5.886,6.519c-0.313,0.405-0.684,0.467-1.11,0.184
		C140.563,206.18,140.623,205.784,140.965,205.431z"/>
	<path fill-rule="evenodd" clip-rule="evenodd" fill="#4F4F4F" d="M159.032,187.548c-1.151,2.154-0.51,3.837,1.459,5.043
		c1.686,1.033,3.445,1.946,5.185,2.888c1.959,1.062,3.752,2.242,3.38,4.886c-0.399,2.83-1.866,4.667-6.058,5.622
		c4.984-6.292,0.42-7.752-3.336-9.68c-5.874-3.016-6.279-5.27-1.88-9.986C158.852,186.065,159.187,186.558,159.032,187.548z"/>
	<path fill-rule="evenodd" clip-rule="evenodd" fill="#555555" d="M81.979,71.437c-0.674,0.714-1.348,1.428-2.022,2.143
		c-4.518,0.02-9.036,0.04-13.554,0.061c-6.614,0.58-13.229,0.553-19.843,0.01l-0.137-0.011c-8.625,0.762-17.267,0.177-25.899,0.312
		c-0.936,0.015-1.601-0.334-1.518-1.435c2.82-0.895,5.672,0.05,8.504-0.151c13.046-0.803,26.105-0.106,39.156-0.372
		c1.78-0.036,3.641,0.502,5.337-0.508C75.328,71.469,78.653,71.452,81.979,71.437z"/>
	<path fill-rule="evenodd" clip-rule="evenodd" fill="#676767" d="M80.03,60.468c16.39,0.062,32.78,0.124,49.17,0.186
		c0.142,0.403-0.015,0.627-0.423,0.696c-13.629,0.045-27.257,0.096-40.885,0.132c-9.298,0.024-18.597,0.028-27.895,0.042
		c0.1-0.438-0.167-1.153,0.518-1.202C67.022,59.862,73.541,58.485,80.03,60.468z"/>
	<path fill-rule="evenodd" clip-rule="evenodd" fill="#494949" d="M120.1,66.695c-6.579,1.092-13.156,0.896-19.732-0.026
		c-7.943,0.665-15.897,0.223-23.847,0.234c-0.683-0.346-0.844-0.856-0.481-1.531c1.912-0.373,3.824-0.795,5.732,0.02
		c11.577-0.87,23.171-0.129,34.754-0.38C117.872,65.244,119.915,63.999,120.1,66.695z"/>
	<path fill-rule="evenodd" clip-rule="evenodd" fill="#D9D9D9" d="M139.167,66.626c20.942-0.054,41.885-0.108,62.827-0.162
		c0.379,0.499,0.33,0.953-0.148,1.359c-1.305,0.138-2.625,0.475-3.869-0.27c-19.729-0.072-39.457-0.146-59.186-0.218
		C138.635,66.95,138.773,66.721,139.167,66.626z"/>
	<path fill-rule="evenodd" clip-rule="evenodd" fill="#DBDBDB" d="M128.777,61.35c0.142-0.231,0.282-0.464,0.423-0.696
		c3.936-0.083,7.871-0.166,11.807-0.248c2.663-0.62,5.326-0.646,7.987,0.019c13.667,0.035,27.334,0.07,41,0.106
		c-0.041,3.215-3.216,0.389-4.039,2.096l-0.436,0.211l-0.443-0.195c-1.564-1.893-3.711-1.037-5.587-1.053
		C162.586,61.455,145.682,61.416,128.777,61.35z"/>
	<path fill-rule="evenodd" clip-rule="evenodd" fill="#555555" d="M167.209,167.914c-0.546-1.398-1.529-0.606-2.381-0.476
		c2.917-4.381,5.842-8.757,8.748-13.146c1.078-1.63,2.885-2.353,4.229-1.292c1.9,1.497-0.494,2.493-1.229,3.44
		C173.551,160.342,170.348,164.102,167.209,167.914z"/>
	<path fill-rule="evenodd" clip-rule="evenodd" fill="#5F5F5F" d="M75.961,66.358c8.135,0.104,16.27,0.207,24.405,0.311
		c-5.49,1.516-11.111,0.679-16.663,0.798C73.807,67.679,63.902,67.478,54,67.448c-0.366-0.515-0.316-0.985,0.151-1.411
		c4.547-1.298,9.217,0.044,13.792-0.646c1.654,0.635,3.398,0.422,5.107,0.547C74.096,65.562,75.069,65.68,75.961,66.358z"/>
	<path fill-rule="evenodd" clip-rule="evenodd" fill="#595959" d="M48.122,145.713c-0.743-1.425-2.21-1.022-3.391-1.344
		c5.204-3.063,10.463-2.133,15.74-0.226c1.106,0.4,2.432,0.784,2.144,2.241c-0.21,1.062-0.761,2.376-1.592,2.924
		c-1.418,0.936-1.756-0.873-2.531-1.56C55.435,145.04,52.115,143.659,48.122,145.713z"/>
	<path fill-rule="evenodd" clip-rule="evenodd" fill="#626262" d="M72.002,71.484c-0.806,1.102-1.994,1.025-3.157,1.021
		c-13.777-0.047-27.554-0.095-41.333-0.142c9.858-1.291,19.773-0.49,29.661-0.757C62.113,71.474,67.059,71.52,72.002,71.484z"/>
	<path fill-rule="evenodd" clip-rule="evenodd" fill="#5C5C5C" d="M151.984,159.468c0.078,0.956,0.342,1.802,1.322,2.223
		c-2.094,2.954-4.188,5.908-6.279,8.863c-5.705-3.564-3.971-9.16-3.904-14.3c1.871,3.458,0.197,7.385,1.424,11.425
		C148.205,165.729,149.307,161.84,151.984,159.468z"/>
	<path fill-rule="evenodd" clip-rule="evenodd" fill="#5F5F5F" d="M116.979,65.459c-11.735-0.022-23.471-0.045-35.207-0.067
		c11.71-1.566,23.476-0.996,35.229-0.883c0.341,0.22,0.451,0.433,0.331,0.642C117.214,65.355,117.096,65.459,116.979,65.459z"/>
	<path fill-rule="evenodd" clip-rule="evenodd" fill="#626262" d="M19.005,72.516c3.203,1.996,6.729,0.768,10.094,0.913
		c5.765,0.249,11.545,0.158,17.322,0.21C36.334,75,26.192,74.262,16.072,74.403c-0.58-1.936,1.478-1.017,1.957-1.808
		C18.354,72.569,18.68,72.542,19.005,72.516z"/>
	<path fill-rule="evenodd" clip-rule="evenodd" fill="#949494" d="M18.029,72.596c-0.652,0.603-1.305,1.205-1.957,1.809
		c-6.339-0.028-12.749,1.403-18.976-0.923c1.765-0.938,3.667-0.258,5.492-0.466c1.794-0.186,3.65,0.419,5.397-0.412
		C11.333,72.602,14.681,72.599,18.029,72.596z"/>
	<path fill-rule="evenodd" clip-rule="evenodd" fill="#595959" d="M57,61.51c-2.991,0.021-5.982,0.04-8.974,0.06
		c-2.333-0.969-4.675-0.865-7.023-0.055l0.09,0.274c-1.545-0.155-1.866-0.873-0.985-2.144c5.631-0.031,11.262-0.063,16.894-0.096
		C57.592,60.204,57.588,60.857,57,61.51z"/>
	<path fill-rule="evenodd" clip-rule="evenodd" fill="#565656" d="M57,61.51c0.001-0.653,0.001-1.307,0.002-1.96
		c2.911-0.056,5.821-0.111,8.732-0.168c4.201-0.626,8.404-0.542,12.608-0.03c0.513-0.009,1.025-0.019,1.538-0.027
		c0.05,0.381,0.1,0.763,0.15,1.144c-5.13,0.013-10.261-0.014-15.39,0.062c-1.586,0.023-3.359-0.55-4.642,0.994
		C58.998,61.52,57.999,61.515,57,61.51z"/>
	<path fill-rule="evenodd" clip-rule="evenodd" fill="#575757" d="M116.979,65.459c0.015-0.316,0.022-0.633,0.022-0.95
		c3.192-0.526,6.396-0.488,9.604-0.189c1.874-0.525,3.786-0.241,5.684-0.279c1.004,1.958,0.967,1.995-2.63,2.554
		c-0.261,0.05-0.521,0.1-0.783,0.148c-2.926-0.016-5.85-0.031-8.775-0.047C119.422,65.366,118.156,65.523,116.979,65.459z"/>
	<path fill-rule="evenodd" clip-rule="evenodd" fill="#696969" d="M25.184,65.71c7.937-0.062,15.875-0.124,23.812-0.187
		c0.03,1.956-1.484,1.414-2.492,1.434c-3.659,0.069-7.32,0.027-10.978,0.027c-3.159,0.219-6.358-0.473-9.493,0.398
		c-0.346,0.015-0.691,0.03-1.037,0.045C24.537,66.798,24.373,66.201,25.184,65.71z"/>
	<path fill-rule="evenodd" clip-rule="evenodd" fill="#565656" d="M156.996,57.547c-4.862,2.095-9.972,0.621-14.955,0.98
		c-3.094,0.224-6.226-0.087-9.342-0.158C140.76,56.986,148.889,57.58,156.996,57.547z"/>
	<path fill-rule="evenodd" clip-rule="evenodd" fill="#5E5E5E" d="M35.01,66.527c4.648-0.521,9.445,1.028,13.985-1.004
		c1.755-0.199,3.563-0.915,5.155,0.514c-0.05,0.471-0.101,0.941-0.151,1.411c-6.333,0.298-12.667,0.813-18.997-0.047
		c-0.33-0.196-0.438-0.392-0.327-0.585C34.787,66.624,34.898,66.527,35.01,66.527z"/>
	<path fill-rule="evenodd" clip-rule="evenodd" fill="#707070" d="M33.268,200.269c-0.071,1.188,0.038,1.623-0.129,1.811
		c-1.69,1.893-2.637,4.653-5.64,5.015c-0.27,0.032-0.952-0.815-0.888-0.92C28.102,203.701,29.95,201.605,33.268,200.269z"/>
	<path fill-rule="evenodd" clip-rule="evenodd" fill="#626262" d="M96.06,188.612c-0.378-0.386-0.755-0.771-1.133-1.156
		c1.504-2.35,3.806-3.093,6.391-2.857c0.981,0.09,0.98,1.257,0.713,2.046C100.928,189.9,98.04,187.909,96.06,188.612z"/>
	<path fill-rule="evenodd" clip-rule="evenodd" fill="#5C5C5C" d="M163.182,206.701c-3.449,1.308-6.369,0.588-9.215,0.721
		c-1.107,0.052-1.816-0.708-2.014-1.766c-0.152-0.823,0.64-1.399,1.156-1.153C156.092,205.923,159.723,204.567,163.182,206.701z"/>
	<path fill-rule="evenodd" clip-rule="evenodd" fill="#D4D4D4" d="M36.085,62.346c-4.166,0.19-8.343,0.523-13.753-0.753
		c3.4-1.285,5.382-2.442,7.676-1.088c1.334,0.471,2.758,0.1,4.109,0.432C35.188,60.829,36.038,61.028,36.085,62.346z"/>
	<path fill-rule="evenodd" clip-rule="evenodd" fill="#FCFCFC" d="M75.001,185.271c-0.343,0.126-0.685,0.251-1.027,0.376
		c-1.813,0.499-3.652-0.022-5.472,0.146c-1.149,0.028-2.245,0.396-3.376,0.547c-0.718,0.059-1.397-0.046-1.999-0.472
		C67.818,181.487,71.032,181.326,75.001,185.271z"/>
	<path fill-rule="evenodd" clip-rule="evenodd" fill="#787878" d="M14.851,175.756c-1.624-0.09-3.248-0.18-4.871-0.27
		c5.126-1.588,10.407-0.479,15.608-0.781c1.562-0.091,2.136,1.395,0.362,2.546C22.433,175.394,18.372,177.576,14.851,175.756z"/>
	<path fill-rule="evenodd" clip-rule="evenodd" fill="#F6F6F6" d="M9.071,68.457c-1.879-0.182-3.759-0.363-6.827-0.659
		c4.204-3.641,8.243-1.724,11.79-2.276c0.279,0.41,0.292,0.819,0,1.229c-1.128,0.921-2.504,0.883-3.755,0.624
		C9.108,67.133,9.029,67.6,9.071,68.457z"/>
	<path fill-rule="evenodd" clip-rule="evenodd" fill="#626262" d="M46.56,73.649c6.613-0.003,13.226-0.007,19.841-0.01
		C59.789,74.347,53.175,75.145,46.56,73.649z"/>
	<path fill-rule="evenodd" clip-rule="evenodd" fill="#2D2D2D" d="M182.962,1.63c-5.973,1.405-11.944,1.406-17.917-0.001
		C171.018,1.166,176.99,1.165,182.962,1.63z"/>
	<path fill-rule="evenodd" clip-rule="evenodd" fill="#565656" d="M97.995,58.611c-5.981,1.842-12.083,0.741-18.14,0.746
		C85.86,58.1,91.94,58.673,97.995,58.611z"/>
	<path fill-rule="evenodd" clip-rule="evenodd" fill="#5D5D5D" d="M68.046,205.692c0.725,0.305,1.45,0.609,2.175,0.914
		c-3.576,1.184-7.097,1.861-10.224-1.105c0.322-0.247,0.645-0.494,0.967-0.741C63.53,203.513,65.902,203.736,68.046,205.692z"/>
	<path fill-rule="evenodd" clip-rule="evenodd" fill="#6C6C6C" d="M133.047,64.657c-2.146-0.112-4.294-0.225-6.441-0.338
		c5.757-1.259,11.6-0.564,17.403-0.755c-2.734,2.11-6.016,0.364-8.922,1.263C134.367,65.237,133.687,65.193,133.047,64.657z"/>
	<path fill-rule="evenodd" clip-rule="evenodd" fill="#464646" d="M189.356,163.68c-0.457-0.417-0.914-0.833-1.371-1.249
		c1.865-0.967,3.925-0.905,5.933-1.124c0.604,1.71,3.623,3.321,0.212,5.195C192.711,165.27,190.891,164.717,189.356,163.68z"/>
	<path fill-rule="evenodd" clip-rule="evenodd" fill="#484848" d="M87.051,153.481c-1.097,0.09-2.309-0.164-3.048,1.008
		c-2.014,1.118-4.021,1.181-6.018-0.044c-0.849-1.193-2.184-0.851-3.346-1.06C78.789,151.76,82.929,151.44,87.051,153.481z"/>
	<path fill-rule="evenodd" clip-rule="evenodd" fill="#C8C8C8" d="M9.071,68.457c0.03-0.645-2.625-1.472,0.064-1.896
		c1.57-0.248,3.201-0.105,4.804-0.139c1.48-0.075,3.038-0.265,2.959,1.985C14.29,68.424,11.681,68.44,9.071,68.457z"/>
	<path fill-rule="evenodd" clip-rule="evenodd" fill="#DBDBDB" d="M16.899,68.408c-0.986-0.661-1.972-1.323-2.958-1.985
		c0.037-0.3,0.068-0.601,0.093-0.902c3.339,0.045,6.679,0.089,10.018,0.133c-0.812,2.963-3.255,1.416-4.996,1.808
		C18.336,67.776,17.618,68.093,16.899,68.408z"/>
	<path fill-rule="evenodd" clip-rule="evenodd" fill="#515151" d="M110.676,206.617c1.437-0.377,3.156,0.361,4.317-1.098
		c1.308-0.029,2.616-0.059,3.924-0.088c1.175-0.5,1.759,0.179,2.214,1.112C117.657,207.936,114.169,207.688,110.676,206.617z"/>
	<path fill-rule="evenodd" clip-rule="evenodd" fill="#E1E1E1" d="M-8.864,73.513c-2.606,1.361-5.353,1.067-8.138,0.52
		c3.243-1.273,6.607-1.742,10.097-1.407C-6.982,74.192-7.777,74.174-8.864,73.513z"/>
	<path fill-rule="evenodd" clip-rule="evenodd" fill="#B5B5B5" d="M-8.864,73.513c0.652-0.296,1.305-0.593,1.958-0.888
		c3.305-0.03,6.61-0.061,9.915-0.091c0.326,0.222,0.427,0.43,0.305,0.627c-0.119,0.19-0.236,0.286-0.354,0.286
		c-1.955,0.012-3.909,0.023-5.863,0.035C-4.887,74.104-6.866,75.661-8.864,73.513z"/>
	<path fill-rule="evenodd" clip-rule="evenodd" fill="#686868" d="M160.984,184.465c1.909-0.557,3.836-0.549,5.789-0.256
		c1.14,0.171,2.372,0.18,2.686,1.59c0.084,0.384-0.175,1.043-0.496,1.283c-1.236,0.925-2.07-0.172-2.992-0.75
		C164.582,184.98,161.653,187.739,160.984,184.465z"/>
	<path fill-rule="evenodd" clip-rule="evenodd" fill="#6B6B6B" d="M140.965,205.431c0.136,0.249,0.229,0.514,0.277,0.794
		c-3.424,1.48-6.918,0.782-10.403,0.337c0.038-2.304,0.224-2.678,1.555-2.013C135.214,205.957,138.133,205.003,140.965,205.431z"/>
	<path fill-rule="evenodd" clip-rule="evenodd" fill="#777777" d="M252.095,174.612c-2.96-2.624-7.192,0.787-10.092-2.127
		c3.075,0.341,6.146,0.647,9.218-0.093c0.908-0.218,2.053-0.516,2.152,0.995C253.424,174.146,252.76,174.448,252.095,174.612z"/>
	<path fill-rule="evenodd" clip-rule="evenodd" fill="#464646" d="M95.982,39.494c0.328,0.304,0.655,0.608,0.983,0.912
		c-0.956,1.743-1.911,3.485-2.867,5.228c-0.962,0.172-1.452-0.136-1.204-1.189C93.693,42.65,94.389,40.792,95.982,39.494z"/>
	<path fill-rule="evenodd" clip-rule="evenodd" fill="#676767" d="M78.341,59.352c-4.202,0.011-8.405,0.021-12.607,0.031
		C69.934,58.538,74.135,57.999,78.341,59.352z"/>
	<path fill-rule="evenodd" clip-rule="evenodd" fill="#797979" d="M160.984,184.465c1.151,1.985,3.748,0.114,4.986,1.867
		c-2.493-0.621-4.68,0.499-6.938,1.216c-0.417-0.409-0.833-0.818-1.25-1.228C158.517,185.127,159.64,184.604,160.984,184.465z"/>
	<path fill-rule="evenodd" clip-rule="evenodd" fill="#666666" d="M40.451,193.595c-1.598-0.138-3.496,0.126-3.273-2.447
		c3.016,3.123,3.579-1.96,5.735-1.714l-0.092-0.092C43.425,191.537,42.24,192.734,40.451,193.595z"/>
	<path fill-rule="evenodd" clip-rule="evenodd" fill="#A5A5A5" d="M36.085,62.346c-0.695-0.27-1.391-0.538-2.086-0.808
		c-0.523-0.358-0.545-0.746-0.066-1.162l-0.009,0.063c1.564-0.912,3.375-0.019,4.974-0.679c0.403-0.038,0.807-0.076,1.21-0.114
		c-0.242,0.977,0.236,1.622,0.985,2.144C39.516,62.808,37.773,62.334,36.085,62.346z"/>
	<path fill-rule="evenodd" clip-rule="evenodd" fill="#5F5F5F" d="M14.851,175.756c2.738-0.078,5.476-0.173,8.214-0.228
		c1.298-0.026,2.678-0.112,2.885,1.723c-0.32,0.045-0.64,0.09-0.959,0.135c-3.274-1.229-6.866,0.579-10.098-1.055
		C14.926,176.136,14.912,175.944,14.851,175.756z"/>
	<path fill-rule="evenodd" clip-rule="evenodd" fill="#6B6B6B" d="M221.022,155.571c-2.647-0.808-4.95-2.948-8.032-2.077
		C216.318,151.672,219.088,152.006,221.022,155.571z"/>
	<path fill-rule="evenodd" clip-rule="evenodd" fill="#F3F3F3" d="M197.977,67.554c1.328-0.028,2.656-0.057,3.984-0.084
		c2.432-0.312,5.018-1.716,7.025,0.987c-3.635,0.081-7.27,0.162-10.904,0.244C198.047,68.318,198.012,67.937,197.977,67.554z"/>
	<path fill-rule="evenodd" clip-rule="evenodd" fill="#959595" d="M121.107,184.853c-1.906,1.052-3.987,0.669-6.014,0.729
		c-0.653-0.117-1.029-0.512-1.161-1.153C116.378,183.661,118.818,182.984,121.107,184.853z"/>
	<path fill-rule="evenodd" clip-rule="evenodd" fill="#6F6F6F" d="M130.839,206.561c3.467-0.11,6.934-0.221,10.401-0.334
		c0.234,0.021,0.451,0.092,0.652,0.208C138.229,208.314,134.539,207.906,130.839,206.561z"/>
	<path fill-rule="evenodd" clip-rule="evenodd" fill="#6E6E6E" d="M121.132,206.544c-0.738-0.371-1.476-0.741-2.214-1.112
		c1.616-1.441,3.51-1.841,5.7-1.96C124.297,205.985,122.795,206.369,121.132,206.544z"/>
	<path fill-rule="evenodd" clip-rule="evenodd" fill="#787878" d="M14.892,176.331c3.343,0.57,6.881-0.723,10.098,1.055
		c-3.661,0.043-7.322,0.086-10.983,0.129C14.302,177.12,14.597,176.726,14.892,176.331z"/>
	<path fill-rule="evenodd" clip-rule="evenodd" fill="#6C6C6C" d="M139.167,66.626c-0.119,0.24-0.244,0.477-0.376,0.71
		c-3.29-0.451-6.694,0.999-9.916-0.594c0.066-0.201,0.176-0.375,0.33-0.521c2.243-0.102,4.487-0.884,6.729,0.011
		C137.012,66.363,138.09,66.495,139.167,66.626z"/>
	<path fill-rule="evenodd" clip-rule="evenodd" fill="#454545" d="M140.028,184.545c2.319-0.646,4.624-0.469,6.923,0.121
		c0.442,0.528,0.607,1.119,0.136,1.68c-0.608,0.722-1.332,0.702-2.058,0.133l-0.032,0.027
		C143.743,184.834,140.722,187.639,140.028,184.545z"/>
	<path fill-rule="evenodd" clip-rule="evenodd" fill="#DDDDDD" d="M92.975,48.465c-0.057,1.635-0.753,2.813-2.404,3.386
		c-0.974-1.336-0.713-2.42,0.516-3.36C91.708,47.915,92.337,47.878,92.975,48.465z"/>
	<path fill-rule="evenodd" clip-rule="evenodd" fill="#616161" d="M35.01,66.527c-0.006,0.292-0.008,0.583-0.007,0.874
		c-2.99-0.006-5.98-0.013-8.97-0.019C28.884,65.614,32.026,66.897,35.01,66.527z"/>
	<path fill-rule="evenodd" clip-rule="evenodd" fill="#757575" d="M140.028,184.545c1.229,1.733,3.909-0.205,4.969,1.961
		c-1.994,0.007-3.988,0.015-5.982,0.022c-0.389-0.383-0.778-0.766-1.167-1.148C138.412,184.676,139.127,184.366,140.028,184.545z"/>
	<path fill-rule="evenodd" clip-rule="evenodd" fill="#606060" d="M63.126,185.867c0.623-0.117,1.246-0.233,1.868-0.35
		c0.569,1.008,0.084,1.837-0.444,2.662c-0.742,0.731-1.536,1.162-2.517,0.4c-0.421-0.982-1.938-1.134-1.881-2.48
		C61.191,186.631,62.23,187.16,63.126,185.867z"/>
	<path fill-rule="evenodd" clip-rule="evenodd" fill="#A4A4A4" d="M92.975,48.465c-0.629,0.009-1.259,0.018-1.889,0.026
		c-0.205-1.71,0.677-2.935,1.809-4.047c0.401,0.396,0.802,0.793,1.204,1.189C93.724,46.578,93.349,47.521,92.975,48.465z"/>
	<path fill-rule="evenodd" clip-rule="evenodd" fill="#565656" d="M128.195,58.409c-2.817-0.008-5.635-0.017-8.453-0.025
		C122.562,57.657,125.381,57.378,128.195,58.409z"/>
	<path fill-rule="evenodd" clip-rule="evenodd" fill="#B1B1B1" d="M256.56,88.88c0.669,1.207,0.796,2.74-0.408,2.966
		c-1.518,0.285-1.061-1.164-0.681-2.017C255.643,89.443,256.16,89.213,256.56,88.88z"/>
	<path fill-rule="evenodd" clip-rule="evenodd" fill="#505050" d="M41.003,61.515c2.354-1.573,4.695-1.636,7.023,0.055
		C45.682,61.951,43.341,61.956,41.003,61.515z"/>
	<path fill-rule="evenodd" clip-rule="evenodd" fill="#424242" d="M45.063,186.656c0.515-0.948,1.055-2.713,2.186-1.935
		c1.65,1.136-0.213,2.032-0.944,2.907C45.139,188.265,45.096,187.467,45.063,186.656z"/>
	<path fill-rule="evenodd" clip-rule="evenodd" fill="#BDBDBD" d="M19.055,67.461c1.196-1.897,3.741-0.073,4.996-1.809
		c0.378,0.021,0.755,0.039,1.133,0.058c-0.063,0.573-0.125,1.146-0.188,1.718l0.016,0.317c-2.011,0.264-4.028,0.64-5.983-0.28
		L19.055,67.461z"/>
	<path fill-rule="evenodd" clip-rule="evenodd" fill="#444444" d="M73.008,66.337c-1.726-0.113-3.656,0.866-5.065-0.946
		c1.674-0.967,3.349-0.125,5.024-0.002c0.233,0.2,0.317,0.408,0.252,0.622C73.152,66.228,73.083,66.337,73.008,66.337z"/>
	<path fill-rule="evenodd" clip-rule="evenodd" fill="#DBDBDB" d="M19.028,67.465c1.995,0.093,3.989,0.185,5.983,0.279
		C22.965,68.764,20.951,69.097,19.028,67.465z"/>
	<path fill-rule="evenodd" clip-rule="evenodd" fill="#424242" d="M45.063,186.656c0.414,0.324,0.828,0.648,1.242,0.973
		c-0.799,1.303-1.589,2.625-3.481,1.715c-0.003-0.002,0.095,0.094,0.092,0.092C43.24,188.206,43.798,187.157,45.063,186.656z"/>
	<path fill-rule="evenodd" clip-rule="evenodd" fill="#A6A6A6" d="M33.933,60.376c0.022,0.387,0.044,0.774,0.066,1.162
		c-1.394-0.097-2.927,0.341-3.99-1.033C31.287,59.574,32.601,59.694,33.933,60.376z"/>
	<path fill-rule="evenodd" clip-rule="evenodd" fill="#4B4B4B" d="M113.933,184.429c0.387,0.385,0.774,0.769,1.161,1.153
		c-0.688,0.329-1.375,0.659-2.063,0.988c-0.73-0.103-1.344-0.411-1.796-1.008C112.134,185.185,113.033,184.807,113.933,184.429z"/>
	<path fill-rule="evenodd" clip-rule="evenodd" fill="#424242" d="M73.008,66.337c-0.011-0.316-0.024-0.633-0.042-0.948
		c1.02-0.841,2.044-0.737,3.072-0.017c-0.026,0.33-0.052,0.659-0.078,0.987C74.977,66.351,73.993,66.344,73.008,66.337z"/>
	<path fill-rule="evenodd" clip-rule="evenodd" fill="#454545" d="M111.235,185.563c0.773,0.025,1.441,0.237,1.796,1.008
		c-0.643,0.396-1.286,0.79-1.929,1.185c-0.347-0.641-0.694-1.281-1.042-1.923C110.452,185.742,110.844,185.652,111.235,185.563z"/>
	<path fill-rule="evenodd" clip-rule="evenodd" fill="#424242" d="M253.191,97.57c-0.428-0.428-0.855-0.855-1.283-1.283
		c0.367-0.885,0.978-2.189,1.888-1.539C254.961,95.582,254,96.732,253.191,97.57z"/>
	<path fill-rule="evenodd" clip-rule="evenodd" fill="#303030" d="M258.021,66.507c-1.518-1.681-1.528-3.355,0.021-5.022
		C258.662,63.161,258.602,64.835,258.021,66.507z"/>
	<path fill-rule="evenodd" clip-rule="evenodd" fill="#686868" d="M145.029,186.479c1.152-0.062,1.934-0.516,1.922-1.813
		c1.245,0.34,1.521,1.269,0.813,2.127C146.885,187.859,145.82,187.663,145.029,186.479z"/>
	<path fill-rule="evenodd" clip-rule="evenodd" fill="#A6A6A6" d="M2.96,73.447c0.025-0.304,0.042-0.608,0.049-0.913
		c1.659,0.023,3.318,0.046,4.977,0.069C6.522,74.145,4.655,73.283,2.96,73.447z"/>
	<path fill-rule="evenodd" clip-rule="evenodd" fill="#A6A6A6" d="M38.898,59.76c-1.513,1.286-3.301,0.563-4.974,0.679
		C35.411,58.961,37.212,59.783,38.898,59.76z"/>
	<path fill-rule="evenodd" clip-rule="evenodd" fill="#EFEFEF" d="M259.068,85.27c-0.441,0.329-0.767,0.572-1.093,0.815
		c-0.21-0.326-0.647-0.719-0.577-0.965c0.104-0.355,0.573-0.606,0.887-0.901C258.514,84.526,258.743,84.834,259.068,85.27z"/>
	<path fill-rule="evenodd" clip-rule="evenodd" fill="#F3F3F3" d="M178.113,5.6c7.81,0.049,15.461,1.273,22.947,3.464
		c1.078,0.315,3.072,0.271,2.49,2.271c-0.424,1.452-2.062,1.116-3.02,0.827c-7.218-2.177-14.75-2.163-22.111-3.309
		c-2.1-0.326-4.266-0.204-6.387-0.426c-1.142-0.118-3.114,0.747-3.051-1.344c0.055-1.832,1.957-1.389,3.176-1.455
		C174.138,5.52,176.127,5.6,178.113,5.6z"/>
	<path fill-rule="evenodd" clip-rule="evenodd" fill="#E4E4E4" d="M185.955,62.626c0.789-1.771,3.148-0.519,4.039-2.097
		c3.678-0.455,7.33-0.578,10.936,1.074C195.973,62.611,191.012,63.174,185.955,62.626z"/>
	<path fill-rule="evenodd" clip-rule="evenodd" fill="#424242" d="M135.934,66.232c-2.243-0.004-4.486-0.007-6.729-0.011
		c1.281-0.523,2.562-1.045,3.843-1.565c0.68,0.057,1.359,0.112,2.039,0.169C135.369,65.295,135.651,65.764,135.934,66.232z"/>
	<path fill-rule="evenodd" clip-rule="evenodd" fill="#EBEBEB" d="M208.986,68.457c-2.131-1.828-4.697-0.56-7.025-0.987
		c0.011-0.336,0.021-0.671,0.033-1.006c2.266,0.042,4.55-0.075,6.789,0.192C209.955,66.797,210.381,67.682,208.986,68.457z"/>
	<path fill-rule="evenodd" clip-rule="evenodd" fill="#C5C5C5" d="M212.886,66.31c0.944,0.07,1.851,0.081,1.945,1.15
		c0.104,1.184-0.897,1.166-1.66,1.225c-0.791,0.061-1.74,0.028-1.822-1.03C211.265,66.566,212.238,66.498,212.886,66.31z"/>
	<path fill-rule="evenodd" clip-rule="evenodd" fill="#565656" d="M148.994,60.424c-2.662-0.006-5.325-0.013-7.987-0.019
		C143.672,59.031,146.335,58.948,148.994,60.424z"/>
	<path fill-rule="evenodd" clip-rule="evenodd" fill="#FBFBFB" d="M77.985,154.445c2.01-0.603,4.016-0.582,6.018,0.044
		c3.387,5.359,1.331,14.657-4.018,17.856c-2.229,1.332-4.666,1.911-7.03,0.393c-2.194-1.411-1.909-3.761-1.592-5.868
		C72.097,161.979,74.268,157.782,77.985,154.445z"/>
	<path fill-rule="evenodd" clip-rule="evenodd" fill="#F5F5F5" d="M240.004,162.538c-1.669-3.508,1.314-5.095,3.175-6.782
		c1.823-1.654,4.503-1.972,6.312,0.111c1.842,2.12,1.736,4.586-0.492,6.653C246.002,163.269,243.003,163.233,240.004,162.538z"/>
	<path fill-rule="evenodd" clip-rule="evenodd" fill="#565656" d="M240.004,162.538c2.998-0.006,5.996-0.012,8.994-0.019
		C246.004,164.207,243.005,164.155,240.004,162.538z"/>
	<path fill-rule="evenodd" clip-rule="evenodd" fill="#F0F0F0" d="M189.356,163.68c1.728,0.709,5.57-2.157,4.773,2.822
		c-0.732,1.6-1.466,3.198-2.198,4.798c-2.283,0.885-4.93,2.244-6.321-0.857C184.04,166.944,186.627,165.129,189.356,163.68z"/>
	<path fill-rule="evenodd" clip-rule="evenodd" fill="#FCFCFC" d="M62.033,188.58c0.876-0.022,1.501-0.452,1.935-1.192
		c2.219-1.646,4.655-2.327,7.396-1.668c0.799,0.289,1.279,0.901,1.647,1.627c4.699,6.174,2.909,12.789-4.964,18.346
		c-2.36-0.311-4.721-0.621-7.082-0.933C56.898,200.167,57.219,195.313,62.033,188.58z"/>
	<path fill-rule="evenodd" clip-rule="evenodd" fill="#424242" d="M73.01,187.347c-0.618,0.123-0.911-0.209-1.054-0.752
		c-0.812-1.668-3.864,0.858-3.975-2.123c2.088-0.067,4.28-0.667,5.993,1.175C73.653,186.213,73.332,186.779,73.01,187.347z"/>
	<path fill-rule="evenodd" clip-rule="evenodd" fill="#737373" d="M67.981,184.472c0.833,1.63,3.367,0.073,3.975,2.123
		c-2.77-0.815-5.396-0.183-7.988,0.793c0.342-0.623,0.685-1.247,1.027-1.87C65.901,184.916,66.789,184.257,67.981,184.472z"/>
</g>
</svg>
